<svg width="124" height="152" viewBox="0 0 124 152" fill="none" xmlns="http://www.w3.org/2000/svg">
<path d="M119.615 116.376C118.865 114.876 118.115 113.376 118.115 111.876C118.115 108.877 116.615 106.627 114.365 104.377C113.615 103.627 112.116 102.877 111.366 102.877C115.865 89.3783 109.116 75.8794 101.616 66.1302C95.6169 57.131 86.6177 50.3816 87.3676 38.3826C87.3676 24.1338 88.8675 -2.114 62.6197 0.135814C35.622 1.63569 43.1214 29.3834 42.3714 39.1325C42.3714 47.3818 38.6218 55.6311 32.6223 62.3806C31.1224 63.8804 29.6225 66.1303 28.8726 67.6301C21.3732 76.6294 17.6235 88.6284 17.6235 99.8774C16.1236 101.377 14.6238 102.877 13.8738 104.377C13.1239 105.127 12.374 105.877 12.374 106.627C11.624 107.377 10.1241 108.127 8.62427 108.877C5.62453 109.627 3.37472 111.126 1.87484 114.126C1.1249 116.376 0.374968 119.376 1.12491 122.376C1.87484 123.875 1.87484 125.375 1.12491 127.625C-0.374968 130.625 -0.374968 134.375 1.12491 138.124C3.37472 141.124 7.1244 141.874 12.374 142.624C16.1236 142.624 20.6233 144.124 24.3729 145.624C28.1226 147.873 32.6223 149.373 37.1219 149.373C39.3717 149.373 42.3714 148.623 44.6212 147.873C46.8711 146.373 48.3709 144.874 49.1209 142.624C52.1206 142.624 56.6202 141.124 61.8698 141.124C66.3694 141.124 70.869 142.624 76.8685 141.874C76.8685 142.624 76.8685 143.374 77.6185 144.124C79.1183 147.873 82.868 150.873 87.3676 151.623H88.8675C94.867 150.873 100.867 147.873 104.616 143.374C107.616 140.374 111.366 138.124 115.115 136.624C119.615 134.374 122.615 132.875 123.365 129.125C124.115 123.875 122.615 120.876 119.615 116.376ZM67.8693 20.3841C72.3689 21.134 76.1186 24.8837 75.3687 29.3834C75.3687 31.6332 74.6187 33.883 73.1188 36.1328H72.3689C70.869 35.3828 70.1191 35.3828 69.3692 34.6329C70.1191 33.883 70.1191 32.3831 70.869 30.8832C70.869 27.8835 69.3692 25.6337 67.8693 25.6337C65.6195 25.6337 64.1196 27.8835 64.1196 30.8832V31.6332C63.3697 30.8832 61.8698 30.8832 61.1199 30.1333V29.3834C60.3699 25.6337 63.3697 21.134 67.8693 20.3841ZM65.6195 35.3828C66.3694 36.1328 67.8693 36.8827 68.6192 36.8827C69.3692 36.8827 70.869 37.6327 71.619 38.3826C73.1188 39.1325 74.6187 39.8825 74.6187 42.1323C74.6187 44.3821 72.3689 46.6319 67.8693 48.1318C66.3694 48.8817 65.6195 48.8817 64.8695 49.6316C62.6197 51.1315 60.3699 51.8815 57.3702 51.8815C55.1204 51.8815 52.8706 50.3816 51.3707 48.8817C50.6207 48.1318 49.8708 47.3818 48.3709 46.6319C47.621 45.882 46.1211 44.3821 45.3712 42.1323C45.3712 41.3823 46.1211 40.6324 46.8711 39.8825C49.1209 38.3826 49.8708 37.6327 50.6207 36.8827L51.3707 36.1328C52.8706 33.883 55.8703 32.3831 58.87 32.3831C61.1199 33.133 63.3697 33.883 65.6195 35.3828ZM49.8708 21.884C52.8705 21.884 55.1204 24.8837 55.8703 30.1333V31.6332C55.1204 31.6332 53.6205 32.3831 52.8706 33.133V31.6332C52.8706 29.3834 51.3707 27.1335 49.8708 27.8835C48.3709 27.8835 47.621 30.1333 47.621 32.3831C47.621 33.883 48.3709 34.6329 49.1209 35.3828C49.1209 35.3828 48.3709 36.1328 47.621 36.1328C46.1211 34.6329 44.6212 32.3831 44.6212 30.1333C44.6212 25.6337 46.8711 21.884 49.8708 21.884ZM42.3714 142.624C37.1219 144.874 30.3724 144.124 25.8728 141.124C21.3732 138.874 17.6235 138.124 12.374 138.124C8.62427 137.374 4.87459 137.374 4.12465 135.874C3.37472 134.375 3.37472 132.125 4.87459 128.375C5.62453 126.125 5.62453 123.875 4.87459 121.626C4.12465 119.376 4.12465 117.876 4.87459 115.626C5.62453 113.376 7.1244 112.626 9.37421 111.876C11.624 111.126 13.1239 110.377 14.6238 108.877C15.3737 108.127 16.1236 107.377 16.8736 105.877C19.1234 102.877 20.6233 101.377 22.8731 101.377C27.3727 102.127 31.1224 108.877 34.1221 115.626C35.622 117.876 37.1219 120.876 39.3717 123.125C42.3714 126.875 46.1211 132.125 46.1211 135.124C46.1211 138.874 44.6212 141.124 42.3714 142.624ZM79.1183 126.125C79.1183 126.875 79.1183 126.875 78.3684 127.625C69.3692 134.375 57.3702 135.124 47.621 129.875L43.1214 123.125C49.8708 122.376 48.3709 113.376 34.1221 104.377C19.1234 94.6279 29.6225 76.6294 34.8721 68.3801C35.622 67.6301 35.622 68.3801 32.6223 74.3796C30.3724 78.8792 25.8728 90.1282 31.8723 98.3775C31.8723 92.378 33.3722 86.3785 35.622 80.3791C40.8716 70.6299 44.6212 59.3808 46.8711 48.1318C47.621 48.8817 47.621 48.8817 48.3709 48.8817C49.1209 49.6316 49.8708 50.3816 50.6207 50.3816C52.1206 52.6314 55.1204 53.3813 57.3702 53.3813H58.1201C61.1199 53.3813 64.1196 52.6314 66.3694 50.3816C67.1194 49.6316 67.8693 48.8817 69.3692 48.8817C71.619 48.1318 73.8688 46.6319 76.1186 44.3821C79.1183 54.1313 82.1181 63.1305 86.6177 71.3798C89.6175 77.3793 91.8673 83.3788 93.3671 90.1282C95.617 90.1282 98.6167 90.8782 100.867 92.378C106.866 95.3778 109.116 97.6276 108.366 101.377H106.866C106.866 99.1275 105.366 96.8777 100.117 94.6279C94.867 92.378 90.3674 92.378 88.8675 97.6276C88.1176 97.6276 87.3676 98.3775 86.6177 98.3775C80.6182 101.377 80.6182 109.627 79.8683 117.876C80.6182 120.876 79.8683 123.125 79.1183 126.125ZM113.615 130.625C109.116 132.125 105.366 135.124 102.366 138.874C99.3666 143.374 94.1171 146.373 88.1176 145.624C85.1178 145.624 82.1181 143.374 81.3682 140.374C80.6182 135.874 80.6182 131.375 82.868 126.875C83.618 123.875 84.3679 121.626 85.1178 118.626C85.8678 109.627 85.8678 104.377 89.6175 102.127C89.6175 105.877 91.8673 108.127 94.867 109.627C98.6167 109.627 102.366 108.877 105.366 105.877H106.866C109.116 105.877 110.616 105.877 112.116 107.377C113.615 108.877 114.365 111.126 114.365 112.626C114.365 114.876 115.865 117.126 116.615 119.376C120.365 123.125 120.365 125.375 120.365 126.125C119.615 127.625 116.615 129.125 113.615 130.625ZM46.1211 40.6324C45.3712 40.6324 45.3712 40.6324 45.3712 41.3823C45.3712 41.3823 45.3712 42.1323 46.1211 42.1323C46.8711 42.1323 46.8711 42.8822 46.8711 42.8822C49.1209 45.882 52.8705 47.3818 57.3702 48.1318C61.1199 47.3818 64.8695 46.6319 68.6192 43.6322L73.1188 41.3823C73.8688 41.3823 73.8688 40.6324 73.8688 40.6324C73.8688 39.8825 73.8688 39.8825 73.1188 39.8825C71.619 40.6324 69.3692 41.3823 67.8693 42.1323C64.8695 44.3821 61.1199 45.882 57.3702 45.882C53.6205 45.882 50.6207 43.6322 48.3709 41.3823C47.621 41.3823 46.8711 40.6324 46.1211 40.6324Z" fill="white"/>
</svg>
