<svg width="95" height="94" viewBox="0 0 95 94" fill="none" xmlns="http://www.w3.org/2000/svg">
<path d="M37.3662 0.65918C38.7302 0.300223 39.8968 0.549308 40.9219 1.39648C41.9539 2.24951 42.4716 3.37679 42.4688 4.8291V4.83008C42.4688 5.84172 42.1819 6.73333 41.6094 7.52051C41.0494 8.29044 40.2835 8.78168 39.2832 8.99609L39.2773 8.99805C30.4158 11.012 23.1551 15.5286 17.5137 22.54C11.8714 29.5526 9.04884 37.6207 9.04883 46.7246C9.04883 55.8285 11.8715 63.8966 17.5137 70.9092C23.1551 77.9206 30.4158 82.4372 39.2773 84.4512L39.2832 84.4531C40.2835 84.6675 41.0494 85.1588 41.6094 85.9287C42.1819 86.7159 42.4688 87.6075 42.4688 88.6191C42.4687 90.0724 41.9503 91.2006 40.9209 92.0537C39.8996 92.9 38.7338 93.1492 37.3662 92.79L37.3584 92.7881L37.3496 92.7861C26.558 90.3442 17.724 84.8356 10.8311 76.251C3.93896 67.6674 0.496849 57.8313 0.5 46.7246C0.503193 35.6178 3.94698 25.7819 10.8359 17.1982C17.7257 8.61368 26.5581 3.10498 37.3496 0.663086L37.3584 0.661133L37.3662 0.65918ZM68.4473 79.3555C69.2159 78.7965 70.0591 78.5895 71.0059 78.7295C71.9713 78.8723 72.8082 79.2977 73.5273 80.0195L73.5283 80.0205C74.543 81.0352 74.9591 82.1825 74.8174 83.4951C74.6746 84.8168 74.0391 85.8609 72.8809 86.6543C70.603 88.0666 68.2271 89.2838 65.752 90.3047C63.2673 91.3294 60.7257 92.1576 58.1279 92.7881L58.1191 92.79C56.7552 93.149 55.5909 92.9001 54.5693 92.0537C53.5398 91.2005 53.0198 90.0722 53.0166 88.6191C53.0166 87.6075 53.3035 86.7159 53.876 85.9287C54.4359 85.1588 55.2019 84.6675 56.2021 84.4531L56.2061 84.4521C58.3825 83.9685 60.4994 83.3022 62.5566 82.4541C64.6158 81.6052 66.5726 80.5776 68.4258 79.3701L68.4365 79.3633L68.4473 79.3555ZM89.6377 52.1182C91.0902 52.1183 92.2181 52.6375 93.0713 53.6699C93.9185 54.6951 94.1672 55.8595 93.8086 57.2197L93.8057 57.2295C93.1752 59.8303 92.3479 62.373 91.3232 64.8574C90.3022 67.3329 89.0854 69.7084 87.6729 71.9834C86.8759 73.1426 85.8311 73.7753 84.5127 73.918C83.2037 74.0596 82.0564 73.6443 81.0381 72.6289C80.3156 71.9061 79.8898 71.0694 79.7471 70.1074C79.6071 69.1642 79.8142 68.3205 80.374 67.5479L80.3809 67.5371L80.3877 67.5273C81.5993 65.6696 82.6296 63.6909 83.4785 61.5928C84.3259 59.4985 84.9904 57.3634 85.4707 55.1875V55.1846C85.6847 54.1858 86.1743 53.4467 86.9346 52.9297C87.7227 52.3938 88.6183 52.1212 89.6377 52.1182ZM47.623 25.3828C48.8566 25.3828 49.839 25.7766 50.6113 26.5488L67.6797 43.6172C68.5442 44.4818 68.9908 45.5145 69.0283 46.7402C69.0654 47.9548 68.6598 48.9749 67.7998 49.832C66.9353 50.6937 65.9082 51.1182 64.6914 51.1182C63.4746 51.1182 62.4475 50.6937 61.583 49.832H61.584L52.751 41L51.8975 40.1465V65.8213C51.8975 67.0484 51.4883 68.0547 50.6729 68.873C49.8585 69.6901 48.8543 70.0985 47.625 70.0957H47.623C46.3967 70.0956 45.3931 69.686 44.5781 68.8682C43.7621 68.0493 43.3515 67.0442 43.3486 65.8203V40.1348L42.4932 41.002L33.541 50.0732C32.6773 50.9358 31.6713 51.3574 30.498 51.3574C29.3236 51.3574 28.3149 50.935 27.4473 50.0703C26.5769 49.2029 26.136 48.1905 26.1045 47.0117C26.0733 45.8411 26.4738 44.8367 27.3291 43.9727L44.6348 26.5488C45.4071 25.7765 46.3895 25.3829 47.623 25.3828ZM81.0391 20.8193C82.0536 19.8049 83.2003 19.3896 84.5127 19.5312C85.8193 19.6724 86.8625 20.3313 87.6602 21.5645V21.5654C89.078 23.8497 90.2993 26.2331 91.3232 28.7158C92.3479 31.2003 93.1752 33.7413 93.8057 36.3389L93.8086 36.3486C94.1674 37.7125 93.9182 38.8784 93.0713 39.9033C92.2182 40.9356 91.0902 41.4531 89.6377 41.4502H89.6367C88.6252 41.4502 87.7344 41.1633 86.9473 40.5908C86.1773 40.0308 85.6851 39.2651 85.4707 38.2646L85.4697 38.2617L85.2803 37.4482C84.8172 35.5571 84.2148 33.7126 83.4727 31.915C82.6239 29.8592 81.5959 27.9012 80.3887 26.042L80.3848 26.0371C79.8127 25.1789 79.6073 24.289 79.7471 23.3467C79.872 22.5045 80.2141 21.757 80.7822 21.0967L81.0391 20.8193ZM54.5684 1.39648C55.5936 0.549213 56.7579 0.300567 58.1182 0.65918L58.1279 0.661133C60.7288 1.29165 63.2723 2.11981 65.7568 3.14453C68.2392 4.16838 70.6206 5.38906 72.9014 6.80664C74.1354 7.60756 74.7953 8.65202 74.9365 9.95898C75.0783 11.2714 74.6624 12.4165 73.6484 13.4277L73.6475 13.4287C72.9246 14.1516 72.0872 14.577 71.125 14.7197C70.1828 14.8594 69.2914 14.6545 68.4297 14.082L68.4258 14.0791C66.5696 12.8686 64.6126 11.8391 62.5566 10.9902C60.7589 10.248 58.9133 9.64618 57.0195 9.18555L56.2051 8.99707L56.2021 8.99609C55.2019 8.78167 54.4359 8.29045 53.876 7.52051C53.3035 6.73333 53.0166 5.84172 53.0166 4.83008C53.0167 3.37746 53.536 2.24975 54.5684 1.39648Z" fill="white" stroke="white"/>
</svg>
